<?xml version="1.0" standalone="no"?>
<!DOCTYPE svg PUBLIC "-//W3C//DTD SVG 20010904//EN"
 "http://www.w3.org/TR/2001/REC-SVG-20010904/DTD/svg10.dtd">
<svg version="1.0" xmlns="http://www.w3.org/2000/svg"
 width="1600.000000pt" height="1600.000000pt" viewBox="0 0 1600.000000 1600.000000"
 preserveAspectRatio="xMidYMid meet">

<g transform="translate(0.000000,1600.000000) scale(0.100000,-0.100000)"
fill="#000000" stroke="none">
<path d="M2705 14719 c-182 -19 -372 -73 -539 -153 -380 -184 -688 -537 -814
-936 -39 -124 -59 -220 -72 -355 -13 -144 -12 -10320 1 -10449 45 -423 259
-814 594 -1081 194 -156 455 -274 710 -321 97 -18 269 -19 5355 -19 l5255 0
112 23 c326 66 590 207 823 441 236 236 376 498 442 824 l23 112 0 5265 0
5265 -23 105 c-98 447 -334 793 -705 1034 -212 139 -451 221 -713 246 -133 12
-10327 12 -10449 -1z m10462 -634 c306 -50 572 -249 708 -530 24 -49 54 -128
67 -175 l23 -85 0 -5230 0 -5230 -23 -85 c-90 -339 -353 -602 -692 -692 l-85
-23 -5230 0 -5230 0 -85 23 c-309 84 -564 321 -666 619 -18 54 -38 136 -44
183 -8 60 -10 1584 -8 5255 l3 5170 26 96 c108 389 424 662 824 712 17 2 2345
5 5175 5 4512 2 5156 0 5237 -13z"/>
<path d="M5400 8060 l0 -3490 630 0 630 0 0 1269 0 1270 1363 4 c1344 3 1364
3 1482 25 402 72 730 235 1007 501 348 334 542 737 589 1223 7 77 9 271 6 555
-5 474 -12 545 -73 756 -184 643 -704 1151 -1350 1317 -240 62 -155 60 -2315
60 l-1969 0 0 -3490z m3935 2215 c231 -48 433 -243 490 -472 14 -53 16 -130
13 -495 l-3 -433 -26 -67 c-75 -194 -221 -336 -409 -401 l-65 -22 -1337 -3
-1338 -2 0 955 0 955 1303 0 c1104 0 1313 -3 1372 -15z"/>
</g>
</svg>
